<?xml version="1.0" encoding="UTF-8"?>
<svg width="20px" height="22px" viewBox="0 0 20 22" version="1.1" xmlns="http://www.w3.org/2000/svg" xmlns:xlink="http://www.w3.org/1999/xlink">
    <title>56023356-EC14-4D7A-A762-6410E731823C</title>
    <g id="Page-1" stroke="none" stroke-width="1" fill="none" fill-rule="evenodd">
        <g id="Desktop-HD-Copy-20" transform="translate(-1469.000000, -487.000000)" fill="#000000" fill-rule="nonzero">
            <g id="calendar-cal-event-schedule-date" transform="translate(1469.000000, 487.000000)">
                <path d="M16.772,2.264 L15.622,2.264 L15.622,1.5 C15.622,1.16862915 15.3533708,0.9 15.022,0.9 C14.6906292,0.9 14.422,1.16862915 14.422,1.5 L14.422,2.264 L5.578,2.264 L5.578,1.5 C5.578,1.16862915 5.30937085,0.9 4.978,0.9 C4.64662915,0.9 4.378,1.16862915 4.378,1.5 L4.378,2.264 L3.227,2.264 C1.67505123,2.26620438 0.417652378,3.52405055 0.416,5.076 L0.416,18.289 C0.41820314,19.8405589 1.67544105,21.0977969 3.227,21.1 L16.772,21.1 C18.3245676,21.0988969 19.5828969,19.8405676 19.584,18.288 L19.584,5.076 C19.5828969,3.52343242 18.3245676,2.26510307 16.772,2.264 Z M18.384,18.288 C18.382898,19.1778262 17.6618262,19.898898 16.772,19.9 L3.227,19.9 C2.33772611,19.898898 1.61710195,19.1782739 1.616,18.289 L1.616,8.068 L18.385,8.068 L18.384,18.288 Z M18.384,6.868 L1.616,6.868 L1.616,5.076 C1.61655088,4.18633561 2.33733613,3.46510295 3.227,3.464 L4.378,3.464 L4.378,4.154 C4.378,4.48537085 4.64662915,4.754 4.978,4.754 C5.30937085,4.754 5.578,4.48537085 5.578,4.154 L5.578,3.464 L14.423,3.464 L14.423,4.154 C14.423,4.48537085 14.6916292,4.754 15.023,4.754 C15.3543708,4.754 15.623,4.48537085 15.623,4.154 L15.623,3.464 L16.773,3.464 C17.6624365,3.46510062 18.3833475,4.18556438 18.385,5.075 L18.384,6.868 Z M3.815,11.721 C3.815,11.0306441 4.37464406,10.471 5.065,10.471 C5.75535594,10.471 6.315,11.0306441 6.315,11.721 C6.315,12.4113559 5.75535594,12.971 5.065,12.971 C4.37464406,12.971 3.815,12.4113559 3.815,11.721 L3.815,11.721 Z M8.75,11.721 C8.75,11.0306441 9.30964406,10.471 10,10.471 C10.6903559,10.471 11.25,11.0306441 11.25,11.721 C11.25,12.4113559 10.6903559,12.971 10,12.971 C9.30964406,12.971 8.75,12.4113559 8.75,11.721 L8.75,11.721 Z M13.685,11.721 C13.685,11.0306441 14.2446441,10.471 14.935,10.471 C15.6253559,10.471 16.185,11.0306441 16.185,11.721 C16.185,12.4113559 15.6253559,12.971 14.935,12.971 C14.2446441,12.971 13.685,12.4113559 13.685,11.721 L13.685,11.721 Z M3.815,15.8 C3.815,15.1096441 4.37464406,14.55 5.065,14.55 C5.75535594,14.55 6.315,15.1096441 6.315,15.8 C6.315,16.4903559 5.75535594,17.05 5.065,17.05 C4.37464406,17.05 3.815,16.4903559 3.815,15.8 L3.815,15.8 Z M8.74999839,15.8 C8.74919078,15.294241 9.05322991,14.8378322 9.52025827,14.6437256 C9.98728662,14.449619 10.5252616,14.5560695 10.8831739,14.9134091 C11.2410862,15.2707488 11.348398,15.8085526 11.1550395,16.2758912 C10.961681,16.7432298 10.5057597,17.048 10,17.048 C9.31042436,17.048 8.75110332,16.4895748 8.74999839,15.8 L8.74999839,15.8 Z M13.685,15.8 C13.685,15.1096441 14.2446441,14.55 14.935,14.55 C15.6253559,14.55 16.185,15.1096441 16.185,15.8 C16.185,16.4903559 15.6253559,17.05 14.935,17.05 C14.2446441,17.05 13.685,16.4903559 13.685,15.8 L13.685,15.8 Z" id="Shape"></path>
            </g>
        </g>
    </g>
</svg>