<?xml version="1.0" encoding="UTF-8"?>
<svg width="21px" height="21px" viewBox="0 0 21 21" version="1.1" xmlns="http://www.w3.org/2000/svg" xmlns:xlink="http://www.w3.org/1999/xlink">
    <title>D240C686-ADBC-452D-8E1C-B25BFCFB6DAF</title>
    <g id="Page-1" stroke="none" stroke-width="1" fill="none" fill-rule="evenodd">
        <g id="Desktop-HD-Copy-35" transform="translate(-439.000000, -438.000000)" fill="#626262">
            <path d="M452.722311,446.118072 L450.340991,448.499505 L452.722311,450.881928 C452.954104,451.112741 452.954104,451.489174 452.722311,451.720977 C452.606415,451.836879 452.453868,451.895325 452.301321,451.895325 C452.150755,451.895325 451.998208,451.836879 451.881321,451.720977 L449.5,449.339544 L447.118679,451.720977 C447.002783,451.836879 446.849245,451.895325 446.698679,451.895325 C446.546132,451.895325 446.393585,451.836879 446.277689,451.720977 C446.045896,451.489174 446.045896,451.112741 446.277689,450.881928 L448.659009,448.499505 L446.277689,446.118072 C446.045896,445.887259 446.045896,445.510826 446.277689,445.278032 C446.510472,445.046229 446.885896,445.046229 447.118679,445.278032 L449.5,447.659465 L451.881321,445.278032 C452.115094,445.046229 452.491509,445.047219 452.722311,445.278032 C452.954104,445.510826 452.954104,445.887259 452.722311,446.118072 M449.5,457.812255 C444.364906,457.812255 440.188679,453.634841 440.188679,448.499505 C440.188679,443.365159 444.364906,439.187745 449.5,439.187745 C454.635094,439.187745 458.811321,443.365159 458.811321,448.499505 C458.811321,453.634841 454.635094,457.812255 449.5,457.812255 M449.5,438 C443.710142,438 439,442.710364 439,448.499505 C439,454.289636 443.710142,459 449.5,459 C455.289858,459 460,454.289636 460,448.499505 C460,442.710364 455.289858,438 449.5,438" id="Close"></path>
        </g>
    </g>
</svg>