<?xml version="1.0" encoding="UTF-8"?>
<svg width="45px" height="45px" viewBox="0 0 45 45" version="1.1" xmlns="http://www.w3.org/2000/svg" xmlns:xlink="http://www.w3.org/1999/xlink">
    <title>857D9F4E-3F6F-4845-AE6E-AFC339FDA3E5</title>
    <g id="Page-1" stroke="none" stroke-width="1" fill="none" fill-rule="evenodd">
        <g id="Desktop-HD-Copy-40" transform="translate(-385.000000, -256.000000)" fill="#419AFA">
            <g id="Group-3" transform="translate(385.000000, 256.000000)">
                <g id="e-mail-letter-envelope-post-mail" transform="translate(11.000000, 15.000000)" fill-rule="nonzero">
                    <path d="M20.1792453,0 L2.82075472,0 C1.265,0 0,1.15065789 0,2.56578947 L0,12.4342105 C0,13.8493421 1.26608491,15 2.82075472,15 L20.1792453,15 C21.735,15 23,13.8483553 23,12.4342105 L23,2.56578947 C23,1.15065789 21.735,0 20.1792453,0 Z M21.6981132,12.4342105 C21.6981132,13.1960526 21.0157075,13.8157895 20.1792453,13.8157895 L2.82075472,13.8157895 C1.98320755,13.8157895 1.30188679,13.1960526 1.30188679,12.4342105 L1.30188679,2.56578947 C1.30188679,1.80394737 1.98320755,1.18421053 2.82075472,1.18421053 L20.1792453,1.18421053 C21.0157075,1.18421053 21.6981132,1.80394737 21.6981132,2.56578947 L21.6981132,12.4342105 Z M19.6226887,3.91578947 C19.8320755,4.18125 19.7658962,4.55131579 19.4729717,4.74177632 L12.5328302,9.27532895 C12.2312264,9.47368421 11.8764623,9.57236842 11.5206132,9.57236842 C11.1680189,9.57236842 10.8143396,9.47467105 10.5127358,9.27927632 L3.5270283,4.74276316 C3.23410377,4.55328947 3.16683962,4.18322368 3.37514151,3.91677632 C3.5845283,3.65032895 3.99028302,3.58815789 4.28320755,3.77861842 L11.2678302,8.31414474 C11.4186321,8.41184211 11.6215094,8.41282895 11.7733962,8.31315789 L18.7146226,3.77960526 C19.0064623,3.58815789 19.4133019,3.65131579 19.6226887,3.91578947 Z" id="Shape"></path>
                </g>
                <circle id="Oval" stroke="#419AFA" stroke-width="1.5" fill-opacity="0.15" cx="22.5" cy="22.5" r="21.75"></circle>
            </g>
        </g>
    </g>
</svg>