<?xml version="1.0" encoding="UTF-8"?>
<svg width="16px" height="23px" viewBox="0 0 16 23" version="1.1" xmlns="http://www.w3.org/2000/svg" xmlns:xlink="http://www.w3.org/1999/xlink">
    <title>8AF67FFC-C637-4B4F-A5AD-71BDE11F63FF</title>
    <g id="Page-1" stroke="none" stroke-width="1" fill="none" fill-rule="evenodd">
        <g id="Desktop-HD-Copy-20" transform="translate(-1481.000000, -709.000000)" fill="#000000" fill-rule="nonzero">
            <g id="female-sex-gender-girl-woman" transform="translate(1481.000000, 709.000000)">
                <path d="M15.558,7.833 C15.558,3.665 12.168,0.275 8,0.275 C3.833,0.275 0.442,3.665 0.442,7.833 C0.442,11.799 3.512,15.06 7.4,15.367 L7.4,17.734 L4.458,17.734 C4.126,17.734 3.858,18.003 3.858,18.334 C3.858,18.665 4.127,18.934 4.458,18.934 L7.4,18.934 L7.4,21.876 C7.4,22.207 7.669,22.476 8,22.476 C8.331,22.476 8.6,22.207 8.6,21.876 L8.6,18.934 L11.542,18.934 C11.873,18.934 12.142,18.665 12.142,18.334 C12.142,18.003 11.873,17.734 11.542,17.734 L8.6,17.734 L8.6,15.367 C12.489,15.06 15.558,11.799 15.558,7.833 Z M8,14.191 C4.494,14.191 1.642,11.338 1.642,7.833 C1.642,4.328 4.494,1.475 8,1.475 C11.506,1.475 14.358,4.328 14.358,7.833 C14.358,11.338 11.506,14.191 8,14.191 Z" id="Shape"></path>
            </g>
        </g>
    </g>
</svg>