<?xml version="1.0" encoding="UTF-8"?>
<svg width="22px" height="20px" viewBox="0 0 22 20" version="1.1" xmlns="http://www.w3.org/2000/svg" xmlns:xlink="http://www.w3.org/1999/xlink">
    <title>0479383A-D763-4609-9B5B-5C12198787BB</title>
    <g id="Page-1" stroke="none" stroke-width="1" fill="none" fill-rule="evenodd">
        <g id="Desktop-HD-Copy-40" transform="translate(-55.000000, -194.000000)" fill="#000" fill-rule="nonzero">
            <g id="home-house-building-hut-homepage" transform="translate(55.000000, 194.000000)">
                <path d="M21.424,9.681 L12.967,1.232 C11.8792357,0.14909007 10.1207643,0.14909007 9.033,1.232 L0.576,9.681 C0.424340757,9.83265924 0.36511108,10.0537074 0.420622216,10.2608778 C0.476133352,10.4680482 0.637951838,10.6298666 0.845122216,10.6853778 C1.05229259,10.7408889 1.27334076,10.6816592 1.425,10.53 L2.456,9.5 L3.1,17.036 C3.21614082,18.4791714 4.42518386,19.5888052 5.873,19.5810526 L16.125,19.5810526 C17.5735836,19.589856 18.7838032,18.4799429 18.9,17.036 L19.546,9.5 L20.578,10.531 C20.8124449,10.7654449 21.1925551,10.7654449 21.427,10.531 C21.6614449,10.2965551 21.6614449,9.91644488 21.427,9.682 L21.424,9.681 Z M17.7,16.933 C17.6335891,17.7540538 16.9457243,18.3852505 16.122,18.3810213 L5.875,18.3810213 C5.05242722,18.3836782 4.36632408,17.7528989 4.3,16.933 L3.568,8.391 L9.884,2.082 C10.5030279,1.46646393 11.5029721,1.46646393 12.122,2.082 L18.438,8.392 L17.7,16.933 Z M7.43199774,10.964 C7.43038174,12.4074842 8.29867028,13.7097336 9.6318116,14.2632527 C10.9649529,14.8167719 12.5002689,14.5124971 13.5215393,13.4923716 C14.5428098,12.4722461 14.8488065,10.9372724 14.2967831,9.603511 C13.7447597,8.26974963 12.4434851,7.4 11,7.4 C9.0319204,7.40219896 7.43640657,8.99592411 7.43199774,10.964 L7.43199774,10.964 Z M13.3690034,10.964 C13.3706182,11.9220379 12.7948089,12.78666 11.9102001,13.1545005 C11.0255914,13.5223409 10.0064957,13.3209166 9.32834434,12.6441966 C8.650193,11.9674766 8.44661598,10.9488087 8.8125866,10.0634247 C9.17855722,9.17804078 10.0419608,8.60040594 11,8.6 C12.3055673,8.60164623 13.3641466,9.65843732 13.368,10.964 L13.3690034,10.964 Z" id="Shape"></path>
            </g>
        </g>
    </g>
</svg>
