<?xml version="1.0" encoding="UTF-8"?>
<svg width="18px" height="22px" viewBox="0 0 18 22" version="1.1" xmlns="http://www.w3.org/2000/svg" xmlns:xlink="http://www.w3.org/1999/xlink">
    <title>2C47C5FF-F63C-4999-ABF1-127E817D04BD</title>
    <g id="Page-1" stroke="none" stroke-width="1" fill="none" fill-rule="evenodd">
        <g id="Desktop-HD-Copy-40" transform="translate(-57.000000, -261.000000)" fill="#FFFFFF" fill-rule="nonzero">
            <g id="savings-cash-bag-investment-installment" transform="translate(57.000000, 261.000000)">
                <path d="M12.663,7.686 C13.133,7.344 13.442,6.794 13.442,6.169 C13.442,5.437 13.017,4.808 12.405,4.497 L13.192,1.916 C13.32,1.496 13.205,1.044 12.892,0.737 C12.58,0.429 12.125,0.323 11.706,0.457 L9.524,1.166 C9.181,1.278 8.819,1.278 8.476,1.166 L6.294,0.458 C5.877,0.324 5.423,0.43 5.109,0.738 C4.796,1.046 4.681,1.497 4.809,1.917 L5.596,4.498 C4.984,4.808 4.559,5.438 4.559,6.17 C4.559,6.794 4.868,7.344 5.338,7.687 C2.454,9.062 0.452,11.998 0.452,15.4 L0.452,16.714 C0.452,19.409 2.644,21.601 5.339,21.601 L12.663,21.601 C15.357,21.601 17.55,19.409 17.55,16.714 L17.55,15.4 C17.549,11.997 15.547,9.061 12.663,7.686 Z M8.105,2.309 C8.691,2.499 9.309,2.499 9.895,2.309 L12.044,1.567 L11.214,4.288 L6.78,4.288 L5.923,1.6 L8.105,2.309 Z M6.439,5.489 L11.561,5.489 C11.936,5.489 12.242,5.794 12.242,6.17 C12.242,6.545 11.937,6.85 11.561,6.85 L6.439,6.85 C6.064,6.85 5.758,6.545 5.758,6.17 C5.758,5.794 6.063,5.489 6.439,5.489 Z M16.349,16.713 C16.349,18.746 14.695,20.4 12.662,20.4 L5.338,20.4 C3.305,20.4 1.651,18.746 1.651,16.713 L1.651,15.399 C1.651,11.347 4.947,8.05 9,8.05 C13.053,8.05 16.349,11.347 16.349,15.399 L16.349,16.713 Z" id="Shape"></path>
            </g>
        </g>
    </g>
</svg>