<?xml version="1.0" encoding="UTF-8"?>
<svg width="22px" height="22px" viewBox="0 0 22 22" version="1.1" xmlns="http://www.w3.org/2000/svg" xmlns:xlink="http://www.w3.org/1999/xlink">
    <title>1C412438-6ECF-4A91-8F0D-794A2B6C5060</title>
    <g id="Page-1" stroke="none" stroke-width="1" fill="none" fill-rule="evenodd">
        <g id="Desktop-HD-Copy-20" transform="translate(-1154.000000, -709.000000)" fill="#000000" fill-rule="nonzero">
            <g id="male-sex-gender-boy-man" transform="translate(1154.000000, 709.000000)">
                <path d="M20.963,1.122 C20.95,1.106 20.936,1.09 20.921,1.075 C20.809,0.962 20.655,0.898 20.495,0.898 L14.261,0.898 C13.93,0.898 13.661,1.167 13.661,1.498 C13.661,1.829 13.93,2.098 14.261,2.098 L19.056,2.098 L13.144,8.01 C10.228,5.526 5.83,5.662 3.077,8.417 C1.673,9.82 0.9,11.687 0.9,13.671 C0.9,15.656 1.672,17.523 3.076,18.925 C4.479,20.329 6.346,21.102 8.331,21.102 C10.315,21.102 12.182,20.33 13.585,18.925 C16.34,16.171 16.475,11.775 13.992,8.858 L19.883,2.967 L19.844,7.677 C19.841,8.008 20.108,8.28 20.439,8.281 L20.444,8.281 C20.773,8.281 21.042,8.016 21.044,7.686 L21.095,1.572 C21.113,1.414 21.07,1.251 20.963,1.122 Z M12.737,18.077 C11.559,19.254 9.995,19.902 8.331,19.902 C6.666,19.902 5.102,19.254 3.925,18.076 C2.748,16.9 2.1,15.336 2.1,13.671 C2.1,12.007 2.748,10.442 3.925,9.265 C5.14,8.051 6.736,7.444 8.331,7.444 C9.926,7.444 11.522,8.051 12.736,9.265 C15.166,11.695 15.166,15.647 12.737,18.077 Z" id="Shape"></path>
            </g>
        </g>
    </g>
</svg>