<?xml version="1.0" encoding="UTF-8"?>
<svg width="27px" height="34px" viewBox="0 0 27 34" version="1.1" xmlns="http://www.w3.org/2000/svg" xmlns:xlink="http://www.w3.org/1999/xlink">
    <title>987D8EDA-FB61-4651-9FA1-58A153056D52</title>
    <g id="Page-1" stroke="none" stroke-width="1" fill="none" fill-rule="evenodd">
        <g id="Desktop-HD-Copy-40" transform="translate(-1750.000000, -23.000000)" fill="#000000" fill-rule="nonzero">
            <g id="bell-ring-notify-notification-alert" transform="translate(1750.000000, 23.000000)">
                <path d="M16.323,5.4735 C16.7265,4.9065 16.965,4.2135 16.965,3.465 C16.965,1.551 15.414,0 13.5,0 C11.586,0 10.035,1.551 10.035,3.465 C10.035,4.2135 10.2735,4.9065 10.677,5.4735 C4.8465,6.7665 0.471,11.9775 0.471,18.192 L0.471,26.9355 C0.471,28.3875 1.6515,29.568 3.1035,29.568 L9.4185,29.568 C9.414,29.649 9.411,29.73 9.411,29.8125 C9.411,32.067 11.2455,33.9 13.4985,33.9 C15.753,33.9 17.586,32.067 17.586,29.8125 C17.586,29.73 17.583,29.649 17.5785,29.568 L23.8935,29.568 C25.3455,29.568 26.5260004,28.3875 26.5260004,26.9355 L26.5260004,18.192 C26.5275,11.9775 22.1535,6.7665 16.323,5.4735 Z M13.5,32.1 C12.2385,32.1 11.2125,31.0725 11.2125,29.8125 C11.2125,29.73 11.217,29.649 11.2245,29.568 L15.7755,29.568 C15.783,29.649 15.7875,29.73 15.7875,29.8125 C15.7875,31.074 14.7615,32.1 13.5,32.1 Z M24.7275,26.9355 C24.7275,27.396 24.354,27.7695 23.8935,27.7695 L16.5,27.7695 C16.4955,27.7695 16.491,27.7695 16.4865,27.7695 L3.105,27.7695 C2.646,27.7695 2.2725,27.396 2.2725,26.9355 L2.2725,18.192 C2.2725,12.0015 7.308,6.9645 13.5,6.9645 C19.6905,6.9645 24.7275,12.0015 24.7275,18.192 L24.7275,26.9355 Z" id="Shape"></path>
            </g>
        </g>
    </g>
</svg>