<?xml version="1.0" encoding="UTF-8"?>
<svg width="20px" height="20px" viewBox="0 0 20 20" version="1.1" xmlns="http://www.w3.org/2000/svg" xmlns:xlink="http://www.w3.org/1999/xlink">
    <title>0D48D4C7-92A0-4A79-9645-F2AEF90122E1</title>
    <g id="Page-1" stroke="none" stroke-width="1" fill="none" fill-rule="evenodd">
        <g id="Desktop-HD-Copy-40" transform="translate(-57.000000, -401.000000)" fill="#FFFFFF" fill-rule="nonzero">
            <path d="M75.355,412.411 L74.509,411.922 C74.398145,411.859593 74.3346037,411.737609 74.347,411.611 C74.3757416,411.345312 74.389763,411.078237 74.389,410.811 C74.389,410.574 74.379,410.354 74.359,410.149 L75.354,409.575 C76.0849508,409.152483 76.3362905,408.218233 75.916,407.486 L74.5,405.024 C74.2972845,404.6713 73.9623738,404.413924 73.5693791,404.308825 C73.1763844,404.203726 72.757709,404.259571 72.406,404.464 L71.691,404.879 C71.5768308,404.934634 71.4406549,404.918199 71.343,404.837 C70.9822277,404.572189 70.5971732,404.342161 70.193,404.15 C70.0632674,404.097267 69.9745655,403.975641 69.964,403.836 L69.964,403.055 C69.9628982,402.210461 69.2785389,401.526102 68.434,401.525 L65.58,401.525 C64.7354611,401.526102 64.0511018,402.210461 64.05,403.055 L64.05,403.835 C64.0400326,403.975097 63.9511903,404.097303 63.821,404.15 C63.414488,404.341919 63.0270878,404.571949 62.664,404.837 C62.5644722,404.918359 62.4268393,404.934735 62.311,404.879 L61.6,404.464 C61.248291,404.259571 60.8296156,404.203726 60.4366209,404.308825 C60.0436262,404.413924 59.7087155,404.6713 59.506,405.024 L58.084,407.49 C57.6636202,408.222534 57.9149227,409.157093 58.646,409.58 L59.641,410.153 C59.62,410.359 59.611,410.578 59.611,410.815 C59.6104543,411.082232 59.6244751,411.349295 59.653,411.615 C59.6658537,411.74144 59.6026636,411.863503 59.492,411.926 L58.646,412.414 C57.9164777,412.836087 57.664911,413.768179 58.083,414.5 L59.505,416.97 C59.9279074,417.701077 60.8624664,417.95238 61.595,417.532 L62.576,416.966 C62.6718404,416.905697 62.7928828,416.902249 62.892,416.957 C63.2096985,417.169442 63.544132,417.355722 63.892,417.514 C63.9957243,417.569922 64.0582863,417.68028 64.053,417.798 L64.053,418.946 C64.0541018,419.790539 64.7384611,420.474898 65.583,420.476 L68.433,420.476 C69.2775389,420.474898 69.9618982,419.790539 69.963,418.946 L69.963,417.8 C69.9579565,417.682338 70.0204504,417.5721 70.124,417.516 C70.4666507,417.358031 70.7960453,417.172768 71.109,416.962 C71.2079147,416.905438 71.3300643,416.908521 71.426,416.97 L72.408,417.535 C73.1403094,417.954702 74.0741219,417.70348 74.497,416.973 L75.917,414.5 C76.3372905,413.767767 76.0859508,412.833517 75.355,412.411 Z M74.876,413.901 L73.454,416.37 C73.4106332,416.446263 73.3386032,416.502047 73.253916,416.524956 C73.1692287,416.547864 73.0788993,416.536 73.003,416.492 L72.022,415.927 C71.5292221,415.637077 70.9147219,415.651413 70.436,415.964 C70.1766435,416.138464 69.9037773,416.291951 69.62,416.423 C69.0901093,416.674317 68.7544709,417.210558 68.76,417.797 L68.76,418.946 C68.76,419.128254 68.612254,419.276 68.43,419.276 L65.5799976,419.276 C65.397746,419.276 65.25,419.128254 65.25,418.946 L65.25,417.8 C65.2553073,417.212809 64.9188285,416.676083 64.388,416.425 C64.1006361,416.293957 63.8243941,416.139783 63.562,415.964 C63.3218669,415.805133 63.0399228,415.721246 62.752,415.723 C62.4806748,415.72329 62.2141601,415.794659 61.979,415.93 L61.979,415.93 L61,416.491 C60.841908,416.581061 60.6407807,416.5271 60.549,416.37 L59.124,413.9 C59.0802724,413.824038 59.0685605,413.733801 59.0914477,413.649193 C59.114335,413.564585 59.169941,413.492558 59.246,413.449 L60.092,412.96 C60.6139113,412.659288 60.9091965,412.078914 60.845,411.48 C60.8211972,411.258804 60.8095131,411.036472 60.81,410.814 C60.8064859,410.522794 60.829919,410.231888 60.88,409.945 C60.9272441,409.694412 60.810934,409.441337 60.59,409.314 L59.245,408.54 C59.0874323,408.448577 59.033355,408.247016 59.124,408.089 L60.544,405.623 C60.5871947,405.546817 60.6593073,405.49129 60.744,405.469 C60.8298822,405.442718 60.9228732,405.453979 61,405.5 L61.713,405.914 C62.2397498,406.21036 62.8919033,406.167197 63.375,405.804 C63.6769107,405.583707 63.9990171,405.392519 64.337,405.233 C64.8899877,404.985629 65.2481821,404.438767 65.254,403.833 L65.254,403.053 C65.254,402.870746 65.401746,402.723 65.584,402.723 L68.434,402.723 C68.616254,402.723 68.764,402.870746 68.764,403.053 L68.764,403.834 C68.7694618,404.4393 69.1267936,404.986037 69.679,405.234 C70.0146299,405.393787 70.3343882,405.584972 70.634,405.805 C71.1160919,406.169422 71.7683491,406.213403 72.295,405.917 L73,405.5 C73.0754529,405.454619 73.1663812,405.442664 73.251,405.467 C73.3356927,405.48929 73.4078053,405.544817 73.451,405.621 L74.871,408.087 C74.9615555,408.244716 74.9074411,408.445968 74.75,408.537 L73.405,409.312 C73.184066,409.439337 73.0677559,409.692412 73.115,409.943 C73.165081,410.229888 73.1885141,410.520794 73.185,410.812 C73.1857394,411.034811 73.1740546,411.25749 73.15,411.479 C73.0862621,412.078083 73.3818987,412.658378 73.904,412.959 L74.751,413.448 C74.8278414,413.491053 74.8842827,413.563039 74.90776,413.647933 C74.9312373,413.732827 74.9196993,413.823583 74.876,413.9 L74.876,413.901 Z M67,406.928 C64.7510965,406.928 62.928,408.751096 62.928,411 C62.928,413.248904 64.7510965,415.072 67,415.072 C69.2489035,415.072 71.072,413.248904 71.072,411 C71.069795,408.75201 69.2479895,406.930205 67,406.928 Z M67,413.871 C65.8382934,413.871 64.7909948,413.171151 64.3465224,412.097836 C63.9020501,411.02452 64.1479495,409.789143 64.9695431,408.967836 C65.7911367,408.146528 67.0265991,407.901059 68.0997599,408.345905 C69.1729207,408.790751 69.8724045,409.838294 69.8720002,411 C69.8703465,412.585476 68.5854764,413.870346 67,413.872 L67,413.871 Z" id="Shape"></path>
        </g>
    </g>
</svg>