<?xml version="1.0" encoding="UTF-8"?>
<svg width="45px" height="45px" viewBox="0 0 45 45" version="1.1" xmlns="http://www.w3.org/2000/svg" xmlns:xlink="http://www.w3.org/1999/xlink">
    <title>99BFF58F-59C0-4457-B23F-D45C104598CD</title>
    <g id="Page-1" stroke="none" stroke-width="1" fill="none" fill-rule="evenodd">
        <g id="Desktop-HD-Copy-40" transform="translate(-1161.000000, -256.000000)" fill="#419AFA">
            <g id="Group-8" transform="translate(1161.000000, 256.000000)">
                <g id="Group-2" fill-opacity="0.15" stroke="#419AFA" stroke-width="1.5">
                    <circle id="Oval-Copy" cx="22.5" cy="22.5" r="21.75"></circle>
                </g>
                <path d="M23,14.3793103 C25.7151036,14.3793103 27.9240302,16.5882369 27.9240302,19.3033405 C27.9240302,20.9850964 27.0763318,22.4723864 25.786003,23.3610741 C26.9907268,23.7767887 28.0949073,24.4635245 29.022588,25.3911719 C30.6312819,26.9998991 31.5172414,29.1387581 31.5172414,31.4137931 L30.1864224,31.4137931 C30.1864224,27.4511798 26.9626133,24.2273707 23,24.2273707 C19.0373867,24.2273707 15.8135776,27.4511798 15.8135776,31.4137931 L14.4827586,31.4137931 C14.4827586,29.1387581 15.3687181,26.9998991 16.9773788,25.3911719 C17.9050594,24.4635245 19.0092399,23.7767887 20.2139638,23.3610741 C18.9236682,22.4723864 18.0759698,20.9850964 18.0759698,19.3033405 C18.0759698,16.5882369 20.2848964,14.3793103 23,14.3793103 Z M23,15.8256344 C21.0505546,15.8256344 19.4645413,17.4116149 19.4645413,19.361093 C19.4645413,21.3105711 21.0505546,22.8965517 23,22.8965517 C24.9494454,22.8965517 26.5354587,21.3105711 26.5354587,19.361093 C26.5354587,17.4116149 24.9494454,15.8256344 23,15.8256344 Z" id="User-II" fill-rule="nonzero"></path>
            </g>
        </g>
    </g>
</svg>