<?xml version="1.0" encoding="UTF-8"?>
<svg width="22px" height="22px" viewBox="0 0 22 22" version="1.1" xmlns="http://www.w3.org/2000/svg" xmlns:xlink="http://www.w3.org/1999/xlink">
    <title>9A1ED8D3-6DB0-4624-8100-AC3906B7CD16</title>
    <g id="Page-1" stroke="none" stroke-width="1" fill="none" fill-rule="evenodd">
        <g id="Desktop-HD-Copy-40" transform="translate(-53.000000, -330.000000)" fill="#FFFFFF" fill-rule="nonzero">
            <g id="wallet-money-cash-balance-purse" transform="translate(53.000000, 330.000000)">
                <path d="M17.207,3.917 L16.281,1.625 C16.094,1.142 15.731,0.763 15.258,0.558 C14.786,0.353 14.264,0.347 13.784,0.54 L5.731,3.837 L5.586,3.837 C2.726,3.837 0.399,6.136 0.399,8.962 L0.399,16.476 C0.399,19.302 2.726,21.601 5.586,21.601 L16.413,21.601 C19.273,21.601 21.6,19.302 21.6,16.476 L21.6,8.962 C21.6,6.405 19.689,4.297 17.207,3.917 Z M14.237,1.651 C14.412,1.58 14.605,1.582 14.78,1.658 C14.955,1.734 15.091,1.876 15.164,2.065 L15.88,3.837 L8.898,3.837 L14.237,1.651 Z M20.4,14.982 L15.164,14.982 C14.38,14.982 13.743,14.344 13.743,13.561 L13.743,11.876 C13.743,11.092 14.381,10.455 15.164,10.455 L20.4,10.455 L20.4,14.982 Z M20.4,9.255 L15.164,9.255 C13.719,9.255 12.542,10.431 12.542,11.877 L12.542,13.562 C12.542,15.007 13.718,16.184 15.164,16.184 L20.4,16.184 L20.4,16.477 C20.4,18.641 18.612,20.401 16.414,20.401 L5.586,20.401 C3.388,20.401 1.6,18.641 1.6,16.477 L1.6,8.962 C1.6,6.798 3.388,5.038 5.586,5.038 L16.413,5.038 C18.611,5.038 20.399,6.798 20.399,8.962 L20.399,9.255 L20.4,9.255 Z" id="Shape"></path>
            </g>
        </g>
    </g>
</svg>