<?xml version="1.0" encoding="UTF-8"?>
<svg width="76px" height="76px" viewBox="0 0 76 76" version="1.1" xmlns="http://www.w3.org/2000/svg" xmlns:xlink="http://www.w3.org/1999/xlink">
    <title>984EB921-7F79-442C-9C06-A5EA92979D3B</title>
    <g id="Page-1" stroke="none" stroke-width="1" fill="none" fill-rule="evenodd">
        <g id="Desktop-HD-Copy-35" transform="translate(-706.000000, -376.000000)" fill-rule="nonzero" stroke="#1F1F1F" stroke-width="0.504">
            <path d="M779.766667,396.733338 L771.9276,396.733338 C776.700446,392.893664 777.456942,385.911919 773.617267,381.139073 C771.509963,378.519628 768.328425,376.997386 764.966667,377.000003 L754.1528,377.000003 C749.755658,377.001549 745.773996,379.598486 744,383.621773 C742.226004,379.598486 738.244342,377.001549 733.8472,377.000003 L723.033333,377.000003 C716.907675,376.995228 711.938112,381.957236 711.933333,388.082739 C711.930713,391.444497 713.452954,394.626034 716.0724,396.733338 L708.233333,396.733338 C707.552225,396.733338 707,397.285563 707,397.966672 L707,410.300004 C707,410.981112 707.552225,411.533337 708.233333,411.533337 L710.7,411.533337 L710.7,449.766667 C710.7,450.447775 711.252225,451.000003 711.933333,451.000003 L776.066667,451.000003 C776.747775,451.000003 777.3,450.447775 777.3,449.766667 L777.3,411.533337 L779.766667,411.533337 C780.447775,411.533337 781,410.981112 781,410.300004 L781,397.966672 C781,397.285563 780.447775,396.733338 779.766667,396.733338 Z M762.666164,379.919328 C762.763862,379.904831 762.860353,379.8855 762.95805,379.873418 C763.263505,379.838382 763.570768,379.820259 763.878334,379.819051 L764.804648,379.819051 C769.465319,379.824337 773.242342,383.6077 773.247619,388.276193 C773.242342,392.944687 769.465319,396.72805 764.804648,396.733336 L761.971429,396.733336 C766.634361,392.969454 767.368296,386.131855 763.610722,381.461096 C763.185558,380.932524 762.711847,380.445182 762.19577,380.005108 C762.351362,379.972488 762.50816,379.943492 762.666164,379.919328 Z M759.300324,380.523813 C763.297425,383.021948 764.576588,388.393214 762.157278,392.520806 C760.621131,395.142011 757.867304,396.740505 754.900258,396.733336 L750.695238,396.733336 L755.892453,384.465785 C756.606919,382.819908 757.797493,381.442845 759.300324,380.523813 Z M750.695238,399.552383 L759.133656,399.552383 L764.969744,411.085728 L769.019048,419.085941 L764.839998,419.085941 C764.45107,419.085941 764.084847,419.266931 763.851459,419.57428 L761.394939,422.809525 L755.519309,410.039462 L750.695238,399.552383 Z M752.104762,409.41905 L749.990476,409.41905 L749.990476,403.780955 L752.104762,409.41905 Z M728.698811,380.523813 C730.201793,381.442845 731.392487,382.819908 732.107024,384.465785 L737.304762,396.733336 L733.09932,396.733336 C728.426656,396.744571 724.629975,392.842475 724.619048,388.01775 C724.612104,384.953996 726.160218,382.110266 728.698811,380.523813 Z M737.304762,399.552383 L732.485633,410.034579 L726.605061,422.809525 L724.148541,419.57428 C723.915153,419.266931 723.54893,419.085941 723.160002,419.085941 L718.980952,419.085941 L723.036434,411.085728 L728.866344,399.552383 L737.304762,399.552383 Z M714.752381,388.276193 C714.757658,383.6077 718.534681,379.824337 723.195352,379.819051 L724.121666,379.819051 C724.429232,379.820259 724.736495,379.838382 725.04195,379.873418 C725.139647,379.8855 725.236138,379.904831 725.333836,379.919328 C725.49184,379.943492 725.648638,379.972488 725.80423,380.005108 C721.24397,383.893128 720.693669,390.748095 724.575024,395.316009 C725.014209,395.832952 725.500886,396.307458 726.028571,396.733336 L723.195352,396.733336 C718.534681,396.72805 714.757658,392.944687 714.752381,388.276193 Z M709.819048,409.41905 L709.819048,399.552383 L726.028571,399.552383 L721.183399,409.41905 L709.819048,409.41905 Z M738.009524,448.180953 L713.342857,448.180953 L713.342857,411.533335 L719.980657,411.533335 L715.939024,419.538396 C715.634545,420.14186 715.881674,420.875576 716.49094,421.177156 C716.662374,421.261903 716.851228,421.306033 717.042857,421.306033 L722.592857,421.306033 L725.922857,425.703747 C726.155803,426.011282 726.521332,426.192382 726.909524,426.192382 C726.954078,426.192382 726.998478,426.189939 727.042724,426.185053 C727.474699,426.137563 727.849478,425.868356 728.02939,425.476532 L734.432857,411.533335 L738.009524,411.533335 L738.009524,448.180953 Z M738.009524,409.41905 L735.895238,409.41905 L738.009524,403.780955 L738.009524,409.41905 Z M734.249953,383.321219 C733.515879,381.678216 732.387503,380.23468 730.961905,379.114289 L733.941068,379.114289 C737.447227,379.114289 740.620862,381.15545 742.026288,384.314367 L742.942857,386.376295 L739.276582,394.61905 L734.249953,383.321219 Z M747.87619,448.885714 L740.828571,448.885714 L740.828571,399.552383 L747.87619,399.552383 L747.87619,448.885714 Z M740.828571,396.733336 L746.148658,384.886087 C747.531075,381.80799 750.652751,379.819051 754.101506,379.819051 L757.038095,379.819051 C755.635837,380.910777 754.525935,382.317381 753.803879,383.918349 L748.042312,396.733336 L740.828571,396.733336 Z M774.657143,448.180953 L749.990476,448.180953 L749.990476,411.533335 L753.567143,411.533335 L759.968143,425.476532 C760.148055,425.868356 760.522835,426.137563 760.95481,426.185053 C760.999826,426.190092 761.045151,426.192535 761.090476,426.192382 C761.478668,426.192382 761.844197,426.011282 762.077143,425.703747 L765.407143,421.306033 L770.957143,421.306033 C771.638251,421.309698 772.19356,420.765786 772.19726,420.091165 C772.198339,419.899375 772.153785,419.710029 772.067143,419.538396 L768.019343,411.533335 L774.657143,411.533335 L774.657143,448.180953 Z M778.180952,409.41905 L766.816601,409.41905 L761.971429,399.552383 L778.180952,399.552383 L778.180952,409.41905 Z" id="Shape"></path>
        </g>
    </g>
</svg>