<?xml version="1.0" encoding="UTF-8"?>
<svg width="77px" height="74px" viewBox="0 0 77 74" version="1.1" xmlns="http://www.w3.org/2000/svg" xmlns:xlink="http://www.w3.org/1999/xlink">
    <title>19BD9F62-72A0-48B2-810C-3AD8A24271B3</title>
    <g id="Page-1" stroke="none" stroke-width="1" fill="none" fill-rule="evenodd">
        <g id="Desktop-HD-Copy-35" transform="translate(-839.000000, -379.000000)" fill-rule="nonzero" stroke="#1F1F1F" stroke-width="0.7">
            <g id="portfolio-2" transform="translate(839.000000, 379.000000)">
                <path d="M76.2670416,18.9015295 C76.2670416,16.0488988 73.9596904,13.7280671 71.1236291,13.7280671 L61.5805578,13.7280671 C61.1483479,12.9454783 60.3187073,12.4141719 59.3672576,12.4141719 L56.7547306,12.4141719 C55.8032809,12.4141719 54.9736403,12.9454783 54.5414304,13.7280671 L51.1794347,13.7280671 L50.2611315,10.033558 C51.198049,9.67962746 51.9818071,8.96404728 52.4094451,8.01771425 C52.8339807,7.07942883 52.8697397,6.03077621 52.5101906,5.06522746 C52.1504783,4.09967872 51.4385647,3.33302086 50.5057293,2.90633339 C47.2389276,1.41210605 42.9635271,0.589114935 38.4670416,0.589114935 C33.9705561,0.589114935 29.6951557,1.41210605 26.4283539,2.90649762 C25.4953552,3.33318509 24.7834416,4.09984295 24.4237293,5.0653917 C24.0641803,6.03094045 24.0999392,7.07942883 24.523985,8.01689307 C24.9478675,8.95550696 25.7102356,9.67157986 26.6709924,10.0332295 C26.6714822,10.0333938 26.6721354,10.033558 26.6726252,10.0337222 L25.7544852,13.7280671 L22.3924896,13.7280671 C21.9602796,12.9454783 21.130639,12.4141719 20.1791893,12.4141719 L17.5666624,12.4141719 C16.6152127,12.4141719 15.7855721,12.9454783 15.3533621,13.7280671 L5.81045414,13.7280671 C2.9743928,13.7280671 0.667041617,16.0488988 0.667041617,18.9015295 L0.667041617,32.0404817 C0.667041617,34.5363899 1.67025198,36.8003956 3.29132499,38.4481844 C3.2844671,38.5012329 3.27956861,38.5549384 3.27956861,38.6099578 L3.27956861,66.2017573 C3.27956861,69.0543881 5.5869198,71.3752197 8.42298114,71.3752197 L15.3535254,71.3752197 C15.7857354,72.1578086 16.615376,72.6891149 17.5668256,72.6891149 L20.1793526,72.6891149 C21.1308023,72.6891149 21.9604429,72.1578086 22.3926528,71.3752197 L54.5414304,71.3752197 C54.9736403,72.1578086 55.8032809,72.6891149 56.7547306,72.6891149 L59.3672576,72.6891149 C60.3187073,72.6891149 61.1483479,72.1578086 61.5805578,71.3752197 L68.5111021,71.3752197 C71.3471634,71.3752197 73.6545146,69.0543881 73.6545146,66.2017573 L73.6545146,38.6099578 C73.6545146,38.5549384 73.6496161,38.5012329 73.6427582,38.4481844 C75.2638312,36.8003956 76.2670416,34.5363899 76.2670416,32.0404817 L76.2670416,18.9015295 Z M15.0359401,68.9116662 L8.42298114,68.9116662 C6.93743298,68.9116662 5.72881268,67.6959846 5.72881268,66.2017573 L5.72881268,40.2166874 C6.93612671,40.816809 8.29382434,41.1556297 9.72924464,41.1556297 L13.7296766,41.1556297 L13.7296766,45.1794338 C13.7296766,46.1364423 14.2578969,46.97093 15.0359401,47.405665 L15.0359401,68.9116662 Z M15.0359401,35.0698313 C14.2578969,35.5045664 13.7296766,36.3390541 13.7296766,37.2960625 L13.7296766,38.6920762 L9.72924464,38.6920762 C6.08281008,38.6920762 3.11628568,35.7082202 3.11628568,32.0404817 L3.11628568,18.9015295 C3.11628568,17.4073022 4.32490598,16.1916206 5.81045414,16.1916206 L15.0359401,16.1916206 L15.0359401,35.0698313 Z M17.4851842,14.9598439 C17.4851842,14.9145145 17.5217595,14.8777254 17.5668256,14.8777254 L20.1793526,14.8777254 C20.2244187,14.8777254 20.2609941,14.9145145 20.2609941,14.9598439 L20.2609941,34.7503906 L17.4851842,34.7503906 L17.4851842,14.9598439 Z M20.2609941,70.143443 C20.2609941,70.1887723 20.2244187,70.2255614 20.1793526,70.2255614 L17.5668256,70.2255614 C17.5222494,70.2255614 17.4861639,70.1894293 17.4855107,70.1447568 C17.4855107,70.1442641 17.4855107,70.1439357 17.4855107,70.143443 C17.4855107,70.1413079 17.4851842,70.1391728 17.4851842,70.1370377 L17.4851842,47.7251058 L20.2609941,47.7251058 L20.2609941,70.143443 Z M21.5672576,45.1794338 C21.5672576,45.2247632 21.5306822,45.2615523 21.4856161,45.2615523 L16.2605621,45.2615523 C16.215496,45.2615523 16.1789207,45.2247632 16.1789207,45.1794338 L16.1789207,42.469525 L21.5672576,42.469525 L21.5672576,45.1794338 Z M21.5672576,40.0059714 L16.1789207,40.0059714 L16.1789207,37.2960625 C16.1789207,37.2512259 16.2148429,37.2149295 16.2592559,37.2142726 C16.2597457,37.2142726 16.2600723,37.2142726 16.2605621,37.2142726 C16.2626848,37.2142726 16.2648075,37.2139441 16.2669302,37.2139441 L21.4792481,37.2139441 C21.4813708,37.2139441 21.4834935,37.2142726 21.4856161,37.2142726 C21.486106,37.2142726 21.4864325,37.2142726 21.4869224,37.2142726 C21.5313354,37.2149295 21.5672576,37.2512259 21.5672576,37.2960625 L21.5672576,40.0059714 Z M26.7173647,5.92977052 C26.8473379,5.58060286 27.1046719,5.30353521 27.4421777,5.14915252 C30.3974356,3.79715434 34.3129604,3.05266847 38.4670416,3.05266847 C42.6211228,3.05266847 46.5366477,3.79715434 49.4920688,5.14915252 C49.8294114,5.30337097 50.0867453,5.58043863 50.2167185,5.92960628 C50.346855,6.27877393 50.3337924,6.65799694 50.1801431,6.99763885 C49.9554658,7.49478396 49.459249,7.81603134 48.9158433,7.81603134 C48.7177811,7.81603134 48.5252706,7.77382245 48.3422304,7.68973316 C45.778525,6.51724591 42.1791159,5.8446958 38.4670416,5.8446958 C34.7549673,5.8446958 31.1555582,6.51724591 28.5921794,7.68973316 C28.2546736,7.84395161 27.8773267,7.85692632 27.5295341,7.72602951 C27.1823945,7.59529694 26.9069362,7.33678806 26.7537768,6.99731038 C26.6002909,6.65799694 26.5872282,6.27893817 26.7173647,5.92977052 Z M48.6549172,13.7280671 L28.279166,13.7280671 L29.1817941,10.0961322 C29.3249932,10.0499817 29.4665595,9.99594774 29.6055133,9.93238806 C31.8624101,8.90015913 35.0923099,8.30824933 38.4670416,8.30824933 C41.8417734,8.30824933 45.0716732,8.90015913 47.3269371,9.93189535 C47.4663807,9.99594774 47.6084369,10.0501459 47.7522891,10.096625 L48.6549172,13.7280671 Z M54.2238451,68.9116662 L22.7102382,68.9116662 L22.7102382,47.405665 C23.4882814,46.97093 24.0165017,46.1364423 24.0165017,45.1794338 L24.0165017,41.1556297 L52.9175816,41.1556297 L52.9175816,45.1794338 C52.9175816,46.1364423 53.4458019,46.97093 54.2238451,47.405665 L54.2238451,68.9116662 Z M54.2238451,35.0698313 C53.4458019,35.5045664 52.9175816,36.3390541 52.9175816,37.2960625 L52.9175816,38.6920762 L24.0165017,38.6920762 L24.0165017,37.2960625 C24.0165017,36.3390541 23.4882814,35.5045664 22.7102382,35.0698313 L22.7102382,16.1916206 L54.2238451,16.1916206 L54.2238451,35.0698313 Z M56.6730891,14.971012 C56.6730891,14.9672345 56.673579,14.9636213 56.673579,14.9598439 C56.673579,14.9590227 56.6734157,14.9583657 56.6734157,14.9575445 C56.674722,14.9133648 56.7104809,14.8777254 56.7547306,14.8777254 L59.3672576,14.8777254 C59.4123237,14.8777254 59.4488991,14.9145145 59.4488991,14.9598439 L59.4488991,34.7503906 L56.6730891,34.7503906 L56.6730891,14.971012 Z M59.4488991,70.1403225 C59.4488991,70.1414721 59.4487358,70.1424575 59.4487358,70.143443 C59.4487358,70.1436072 59.4487358,70.1439357 59.4487358,70.1440999 C59.4484092,70.1891008 59.4121604,70.2255614 59.3672576,70.2255614 L56.7547306,70.2255614 C56.7096645,70.2255614 56.6730891,70.1887723 56.6730891,70.143443 L56.6730891,47.7251058 L59.4488991,47.7251058 L59.4488991,70.1403225 Z M60.7551626,45.1794338 C60.7551626,45.2247632 60.7185872,45.2615523 60.6735211,45.2615523 L55.4484671,45.2615523 C55.403401,45.2615523 55.3668256,45.2247632 55.3668256,45.1794338 L55.3668256,42.469525 L60.7551626,42.469525 L60.7551626,45.1794338 Z M60.7551626,40.0059714 L55.3668256,40.0059714 L55.3668256,37.2960625 C55.3668256,37.2512259 55.4027479,37.2149295 55.4471608,37.2142726 C55.4476507,37.2142726 55.4479773,37.2142726 55.4484671,37.2142726 C55.4505898,37.2142726 55.4527125,37.2139441 55.4548351,37.2139441 L60.6671531,37.2139441 C60.6692757,37.2139441 60.6713984,37.2142726 60.6735211,37.2142726 C60.6740109,37.2142726 60.6743375,37.2142726 60.6748274,37.2142726 C60.7192403,37.2149295 60.7551626,37.2512259 60.7551626,37.2960625 L60.7551626,40.0059714 Z M71.2052706,66.2017573 C71.2052706,67.6959846 69.9966503,68.9116662 68.5111021,68.9116662 L61.8981431,68.9116662 L61.8981431,47.405665 C62.6761863,46.97093 63.2044066,46.1364423 63.2044066,45.1794338 L63.2044066,41.1556297 L67.2048386,41.1556297 C68.6402589,41.1556297 69.9979565,40.816809 71.2052706,40.2166874 L71.2052706,66.2017573 Z M73.8177976,32.0404817 C73.8177976,35.7082202 70.8512732,38.6920762 67.2048386,38.6920762 L63.2044066,38.6920762 L63.2044066,37.2960625 C63.2044066,36.3390541 62.6761863,35.5045664 61.8981431,35.0698313 L61.8981431,16.1916206 L71.1236291,16.1916206 C72.6091773,16.1916206 73.8177976,17.4073022 73.8177976,18.9015295 L73.8177976,32.0404817 Z" id="Shape"></path>
                <path d="M33.2054813,36.1609214 L43.4130762,36.1609214 C44.073699,36.1609214 44.6092788,35.5340948 44.6092788,34.7609214 C44.6092788,33.9877481 44.073699,33.3609214 43.4130762,33.3609214 L33.2054813,33.3609214 C32.5448585,33.3609214 32.0092788,33.9877481 32.0092788,34.7609214 C32.0092788,35.5340948 32.5448585,36.1609214 33.2054813,36.1609214 Z" id="Path"></path>
            </g>
        </g>
    </g>
</svg>