<?xml version="1.0" encoding="UTF-8"?>
<svg width="98px" height="99px" viewBox="0 0 98 99" version="1.1" xmlns="http://www.w3.org/2000/svg" xmlns:xlink="http://www.w3.org/1999/xlink">
    <title>6D5A8D8D-E1D3-4939-9A2E-1A0B7EDD7CF2</title>
    <g id="Page-1" stroke="none" stroke-width="1" fill="none" fill-rule="evenodd">
        <g id="Desktop-HD-Copy-35" transform="translate(-956.000000, -364.000000)" fill-rule="nonzero" stroke="#1F1F1F" stroke-width="0.5">
            <g id="suit-2" transform="translate(956.000000, 365.000000)">
                <path d="M84.9343225,36.9201181 C84.6049742,36.3470926 84.0310437,35.9551959 83.3756653,35.8558382 L73.4474203,34.3503045 L76.2166415,23.5802976 C76.3651907,23.0025384 76.267838,22.3894185 75.9474734,21.8854665 C75.6271654,21.3816474 75.1124653,21.0316269 74.5246137,20.918296 L57.7915604,17.6917521 C57.7648191,17.6866023 57.738333,17.6846357 57.7117212,17.6805282 L56.2491688,14.2489019 C55.64022,12.8201089 54.3541031,11.8477848 52.80889,11.6475781 C51.2634102,11.4474842 49.7707879,12.0603244 48.815779,13.2866488 L43.2748522,20.4027562 C42.2573314,20.0108057 41.0924744,19.9956657 40.0114629,20.4526726 L36.011667,22.1436205 C34.9306555,22.6006274 34.1324128,23.4456845 33.7086738,24.44694 L24.7197523,23.4732936 C23.171192,23.3058446 21.6915862,23.9492259 20.762259,25.1955656 C19.8333317,26.4417363 19.6421907,28.0385839 20.2511395,29.4673769 L21.7117677,32.8944883 L12.3729859,47.1934285 C12.0464842,47.6933101 11.9417492,48.305202 12.0831331,48.8846629 C12.2245735,49.4642566 12.5997786,49.959912 13.120262,50.254832 L22.8226708,55.7523506 L17.0133191,63.9110879 C16.6298172,64.4496412 16.5141829,65.1330573 16.6992718,65.7670697 C16.8844174,66.4012149 17.3498354,66.9165591 17.96342,67.1663214 C17.96342,67.1663214 63.8402725,85.8525793 63.8503383,85.8566297 C64.8733833,86.2733561 66.1055302,85.8124765 66.6086664,84.8346988 C66.6385953,84.7764426 66.6658854,84.7167946 66.6903267,84.6560003 L85.066795,38.7977953 C85.3126333,38.1847047 85.2637273,37.4932765 84.9343225,36.9201181 Z M52.2495063,15.9397935 L56.8191891,26.6613947 L47.1107217,25.6098763 C47.0485163,25.6031077 46.9867522,25.6006973 46.9253843,25.5992163 L46.1481823,23.7756462 L52.2495063,15.9397935 Z M47.4507282,30.0006248 L55.4651607,30.8686219 L61.4933886,76.3941848 L32.7996509,40.4506601 L37.7400239,34.1059082 C38.7812946,34.5373395 39.9883907,34.5692561 41.1059336,34.0968052 L45.1057295,32.4058573 C46.2234058,31.9333501 47.0390064,31.0463211 47.4507282,30.0006248 Z M37.709819,26.1280403 L41.7096151,24.437093 L43.4077106,28.4213806 L39.4079148,30.1123285 L37.7094192,26.12821 L37.709819,26.1280403 Z M24.2509353,27.776429 L34.1487947,28.84849 L34.9218654,30.6623666 L28.8206949,38.497841 C28.820618,38.4980299 28.820618,38.4980299 28.8204848,38.4980865 L24.2509353,27.776429 Z M22.14098,64.1919653 L27.756153,56.3060383 C28.1113306,55.8073543 28.2379828,55.1822788 28.1049716,54.5851742 C27.9718836,53.9882587 27.5916041,53.4751595 27.0580239,53.1727691 L17.2730657,47.6285015 L23.7589335,37.697809 L24.8206889,40.1890344 C25.4296377,41.6178274 26.7157547,42.5901516 28.2611577,42.7904346 C28.5564031,42.8285986 28.8497356,42.8371689 29.1377087,42.8172892 L57.7937632,78.7137462 L22.14098,64.1919653 Z M65.738691,75.35496 L59.7183378,29.8892233 C59.9328158,29.6965308 60.1303916,29.4804248 60.3078654,29.242258 C61.236716,27.9962765 61.4278004,26.3992961 60.8188516,24.9705031 L59.7570962,22.4792776 L71.434968,24.7310938 L68.6423014,35.5926599 C68.4901065,36.1851243 68.5963434,36.8139207 68.9351543,37.3238651 C69.2738884,37.8339986 69.8134688,38.1774185 70.4203754,38.2693731 L80.0166926,39.7245125 L65.738691,75.35496 Z" id="Shape" transform="translate(48.621630, 48.810260) rotate(23.000000) translate(-48.621630, -48.810260) "></path>
                <path d="M48.9075948,36.5916012 C47.8933982,37.0651056 47.4174225,38.3611439 47.8479755,39.4767852 C48.2785285,40.5924265 49.4567907,41.1161405 50.4709873,40.6426362 C51.4851838,40.1691318 51.9611074,38.8729585 51.5306065,37.7574522 C51.1000535,36.6418109 49.9217913,36.1180969 48.9075948,36.5916012 Z" id="Path" transform="translate(49.689280, 38.617119) rotate(23.000000) translate(-49.689280, -38.617119) "></path>
                <path d="M48.8332836,45.2841214 C47.7176758,45.7576134 47.1941065,47.0536183 47.6677113,48.1692307 C48.141316,49.2848431 49.4374519,49.8086785 50.5530597,49.3351865 C51.6686675,48.8616944 52.1921795,47.5655546 51.7185748,46.4499421 C51.24497,45.3343297 49.9488914,44.8106293 48.8332836,45.2841214 L48.8332836,45.2841214 Z" id="Path" transform="translate(49.693147, 47.309643) rotate(23.000000) translate(-49.693147, -47.309643) "></path>
                <path d="M48.9152741,53.9766204 C47.9010872,54.4501002 47.4251682,55.7462065 47.8557171,56.8617901 C48.286266,57.9773736 49.464569,58.5011955 50.4787558,58.0277156 C51.4929427,57.5542358 51.9688617,56.2581295 51.5383128,55.142546 C51.1077639,54.0269625 49.9294609,53.5031406 48.9152741,53.9766204 Z" id="Path" transform="translate(49.697015, 56.002168) rotate(23.000000) translate(-49.697015, -56.002168) "></path>
            </g>
        </g>
    </g>
</svg>